<?xml version="1.0" standalone="no"?>
<!DOCTYPE svg PUBLIC "-//W3C//DTD SVG 20010904//EN"
 "http://www.w3.org/TR/2001/REC-SVG-20010904/DTD/svg10.dtd">
<svg version="1.0" xmlns="http://www.w3.org/2000/svg"
 width="363.000000pt" height="363.000000pt" viewBox="0 0 363.000000 363.000000"
 preserveAspectRatio="xMidYMid meet">
<metadata>
Created by potrace 1.11, written by Peter Selinger 2001-2013
</metadata>
<g transform="translate(0.000000,363.000000) scale(0.100000,-0.100000)"
fill="#000000" stroke="none">
<path d="M403 3450 c-54 -22 -84 -149 -80 -343 2 -131 5 -146 29 -197 15 -30
27 -51 28 -45 0 5 26 -16 58 -46 31 -31 91 -86 133 -122 l77 -65 -24 -39 c-13
-21 -24 -48 -24 -59 0 -28 24 -48 50 -41 15 4 24 -2 35 -23 8 -16 28 -38 44
-49 24 -17 34 -19 56 -11 14 5 48 10 75 10 40 0 52 -4 68 -25 11 -13 21 -22
23 -20 3 2 35 -24 72 -59 37 -34 69 -61 71 -59 2 2 17 -12 35 -32 17 -20 31
-33 31 -29 0 4 16 -9 37 -29 20 -20 40 -37 45 -37 5 0 6 -5 3 -10 -4 -6 -3 -9
2 -8 13 4 73 -49 65 -57 -4 -5 -2 -6 4 -2 5 3 41 -23 78 -57 38 -35 70 -64 73
-64 2 -1 30 -23 61 -51 31 -27 75 -65 97 -83 22 -18 52 -45 67 -60 16 -14 28
-24 28 -22 0 5 57 -45 107 -93 28 -27 33 -20 28 40 -4 48 -8 54 -105 133 -19
16 -37 31 -40 34 -3 3 -54 48 -115 99 -60 52 -124 105 -140 120 -112 97 -183
159 -201 176 -30 28 -104 88 -121 98 -7 5 -11 13 -7 18 3 5 2 8 -3 7 -4 -2
-19 5 -32 14 -23 16 -24 18 -8 36 9 10 17 24 17 30 0 7 6 12 14 12 19 0 37
-25 31 -41 -6 -17 -1 -20 167 -108 225 -116 465 -199 597 -205 38 -2 49 -7 75
-39 l30 -37 -18 -58 c-10 -31 -29 -77 -42 -101 -13 -24 -24 -49 -24 -55 0 -6
-9 -29 -21 -50 -17 -32 -19 -49 -14 -100 7 -58 5 -63 -19 -81 -14 -11 -26 -26
-26 -33 0 -10 -6 -12 -17 -7 -10 4 -38 12 -63 18 -25 6 -47 13 -50 16 -3 4
-21 7 -40 9 -19 2 -48 10 -65 18 -16 9 -52 18 -80 20 -27 3 -59 10 -70 15 -32
14 -106 28 -121 22 -8 -3 -14 0 -14 6 0 17 -25 13 -44 -8 -15 -17 -21 -17 -73
-5 -31 7 -60 11 -64 8 -4 -2 -10 0 -14 6 -3 5 -38 10 -77 10 -70 0 -72 -1
-109 -40 -60 -63 -66 -105 -42 -292 3 -27 9 -48 13 -48 4 0 10 -28 14 -63 6
-65 9 -82 19 -107 5 -14 21 -88 34 -155 3 -16 9 -34 13 -40 4 -5 22 -53 40
-105 42 -122 55 -147 81 -155 21 -7 21 -9 -14 -41 -19 -18 -41 -47 -48 -63 -8
-17 -25 -35 -39 -40 -14 -5 -34 -12 -45 -17 -11 -4 -30 -8 -42 -9 -12 -1 -29
-7 -37 -14 -20 -17 -30 -66 -17 -89 8 -15 7 -23 -4 -32 -22 -18 -18 -56 9 -83
l24 -24 -47 0 c-795 -3 -821 -4 -821 -29 0 -11 40 -14 210 -16 116 -1 222 -2
238 -4 15 -1 259 -4 542 -8 626 -7 1169 -14 1633 -22 l347 -6 0 24 c0 35 9 39
43 21 35 -18 54 -21 154 -27 61 -3 77 -1 98 16 14 11 25 17 25 13 0 -3 11 2
25 11 27 18 34 54 10 54 -8 0 -15 5 -15 11 0 5 -4 8 -8 5 -5 -3 -15 4 -23 16
-30 44 -82 103 -98 112 -9 5 -18 12 -21 15 -3 3 -67 37 -142 75 -116 58 -142
68 -172 63 -27 -4 -36 -2 -36 9 0 21 -8 17 -44 -20 l-33 -34 -34 18 c-74 38
-176 73 -189 65 -11 -7 -13 8 -11 85 5 127 11 183 26 235 12 39 14 64 7 83
-11 34 27 127 56 136 27 9 32 36 17 80 -12 35 -11 38 17 66 33 34 50 37 72 15
8 -9 17 -14 18 -13 7 7 78 -42 78 -53 0 -7 3 -9 6 -6 4 3 18 -3 32 -13 39 -32
96 -26 176 18 38 21 72 44 76 52 14 28 53 125 72 179 l19 54 -28 36 c-16 20
-37 53 -46 73 -10 20 -22 40 -27 43 -6 3 -10 23 -10 44 0 21 -7 58 -15 81 -11
32 -13 52 -5 80 10 36 0 88 -21 116 -5 6 -7 13 -5 15 2 2 -12 19 -30 37 -19
18 -34 30 -34 27 0 -3 -18 6 -40 20 -22 14 -42 25 -45 25 -5 0 -45 33 -73 60
-8 8 -24 20 -36 26 -12 6 -52 28 -91 49 -38 20 -72 41 -75 45 -3 4 -21 15 -40
25 -19 10 -51 31 -71 46 -20 16 -42 29 -48 29 -6 0 -11 5 -11 10 0 6 -6 10
-12 10 -7 0 -38 26 -70 58 -85 87 -104 95 -196 87 -75 -7 -142 -29 -142 -46 0
-5 -11 -9 -25 -9 -13 0 -50 -7 -82 -16 -68 -19 -100 -19 -151 0 -20 8 -77 17
-127 20 -118 8 -142 13 -187 37 -15 7 -42 15 -118 33 -8 2 -39 7 -67 11 -46 6
-53 10 -53 29 0 38 -33 59 -84 54 -35 -4 -47 -1 -60 13 -18 21 -94 27 -113 8
-8 -8 -17 -7 -34 1 -32 17 -173 17 -194 0 -13 -11 -20 -11 -40 0 -13 7 -22 17
-19 22 3 5 1 7 -4 6 -15 -4 -108 70 -143 113 -17 21 -28 39 -24 39 4 0 3 6 -2
13 -6 6 -13 23 -17 37 -31 112 -29 203 8 363 22 92 20 114 -9 142 -25 26 -54
30 -92 15z m1014 -2356 c31 -15 71 -29 87 -31 37 -6 181 -52 251 -80 28 -11
81 -33 118 -48 45 -18 72 -35 77 -49 4 -12 19 -50 33 -86 14 -36 29 -83 33
-105 4 -22 8 -42 9 -45 1 -3 5 -18 9 -35 4 -16 14 -44 22 -62 8 -17 14 -34 14
-38 0 -4 11 -16 25 -27 23 -18 25 -25 19 -67 l-6 -47 65 -60 64 -59 -369 -2
c-368 -3 -370 -2 -365 18 3 11 -2 37 -11 57 -20 46 -22 70 -10 98 7 15 5 43
-6 92 -14 64 -30 229 -30 310 0 24 -4 32 -18 32 -32 0 -51 -43 -44 -102 5 -43
4 -48 -4 -23 -6 17 -13 43 -15 59 -3 16 -8 33 -11 37 -9 14 -8 289 1 289 2 0
30 -12 62 -26z m-122 -712 c11 -7 38 -63 33 -67 -2 -1 -54 -5 -115 -8 -91 -5
-113 -4 -113 7 0 23 30 40 99 57 80 20 83 21 96 11z"/>
<path d="M2558 2711 c-41 -14 -114 -70 -127 -97 -15 -34 -14 -54 4 -54 8 0 15
5 15 10 0 6 9 10 20 10 24 0 26 -24 5 -60 -18 -32 -18 -33 4 -58 21 -25 31
-28 31 -9 0 7 18 30 39 51 35 34 42 37 67 29 15 -5 36 -21 47 -34 18 -25 18
-26 -3 -61 -12 -21 -34 -41 -52 -47 -37 -13 -30 -25 38 -68 24 -15 44 -31 44
-35 0 -5 5 -8 11 -8 5 0 26 -11 46 -25 l37 -24 30 42 c17 24 50 63 74 88 40
41 42 47 40 94 -1 28 -10 66 -19 85 -9 19 -23 50 -29 67 -29 76 -79 103 -204
109 -50 2 -103 0 -118 -5z"/>
</g>
</svg>
